<svg xmlns="http://www.w3.org/2000/svg" version="1.1" xmlns:xlink="http://www.w3.org/1999/xlink" xmlns:svgjs="http://svgjs.dev/svgjs" width="2000" height="1999" viewBox="0 0 2000 1999"><g transform="matrix(1,0,0,1,-0.431486880466764,-0.4312711370263287)"><svg viewBox="0 0 343 343" data-background-color="#ffffff" preserveAspectRatio="xMidYMid meet" height="1999" width="2000" xmlns="http://www.w3.org/2000/svg" xmlns:xlink="http://www.w3.org/1999/xlink"><g id="tight-bounds" transform="matrix(1,0,0,1,0.0740000000000407,0.07400000000001228)"><svg viewBox="0 0 342.85155851775386 342.85155851775386" height="342.85155851775386" width="342.85155851775386"><g><svg></svg></g><g><svg viewBox="0 0 342.85155851775386 342.85155851775386" height="342.85155851775386" width="342.85155851775386"><g><path d="M0 171.426c0-94.676 76.75-171.426 171.426-171.426 94.676 0 171.426 76.75 171.426 171.426 0 94.676-76.75 171.426-171.426 171.426-94.676 0-171.426-76.75-171.426-171.426zM171.426 339.995c93.098 0 168.569-75.471 168.569-168.569 0-93.098-75.471-168.569-168.569-168.569-93.098 0-168.569 75.471-168.569 168.569 0 93.098 75.471 168.569 168.569 168.569z" data-fill-palette-color="tertiary" fill="#202046" stroke="transparent"></path><ellipse rx="164.56874808852186" ry="164.56874808852186" cx="171.42577925887693" cy="171.42577925887693" fill="#202046" stroke="transparent" stroke-width="0" fill-opacity="1" data-fill-palette-color="tertiary"></ellipse></g><g transform="matrix(1,0,0,1,64.84655864529837,113.61297178706147)"><svg viewBox="0 0 213.1584412271571 115.62561494363092" height="115.62561494363092" width="213.1584412271571"><g><svg viewBox="0 0 213.1584412271571 115.62561494363092" height="115.62561494363092" width="213.1584412271571"><g transform="matrix(1,0,0,1,0,56.893176737222866)"><svg viewBox="0 0 213.1584412271571 58.732438206408055" height="58.732438206408055" width="213.1584412271571"><g id="textblocktransform"><svg viewBox="0 0 213.1584412271571 58.732438206408055" height="58.732438206408055" width="213.1584412271571" id="textblock"><g><svg viewBox="0 0 213.1584412271571 31.67747072202437" height="31.67747072202437" width="213.1584412271571"><g transform="matrix(1,0,0,1,0,0)"><svg width="213.1584412271571" viewBox="4 -35.01 238.85 35.5" height="31.67747072202437" data-palette-color="#ffffff"><path d="M28.71 0L25.56 0 25.56-24 25.34-22.51 17.21 0 15.55 0 7.35-22.51 7.15-24 7.15 0 4 0 4-35.01 5.64-35.01 16.26-6.3 16.36-5 16.46-6.3 27.05-35.01 28.71-35.01 28.71 0ZM51.9 0L50.9 0 49.24-2.49Q48.22-1.15 46.68-0.33 45.14 0.49 43.31 0.49L43.31 0.49 42.55 0.49Q41.04 0.49 39.69-0.09 38.35-0.66 37.35-1.66 36.35-2.66 35.78-4 35.2-5.35 35.2-6.86L35.2-6.86 35.2-7.1Q35.2-8.62 35.78-9.96 36.35-11.3 37.35-12.3 38.35-13.31 39.69-13.88 41.04-14.45 42.55-14.45L42.55-14.45 48.9-14.45 48.9-18.31Q48.9-19.21 48.56-20.01 48.22-20.8 47.63-21.39 47.04-21.97 46.25-22.31 45.46-22.66 44.55-22.66L44.55-22.66 42.8-22.66Q41.89-22.66 41.1-22.31 40.31-21.97 39.72-21.39 39.13-20.8 38.79-20.01 38.45-19.21 38.45-18.31L38.45-18.31 38.45-17.41 35.45-17.9 35.45-18.14Q35.45-19.65 36.02-21 36.59-22.34 37.6-23.34 38.6-24.34 39.94-24.91 41.28-25.49 42.8-25.49L42.8-25.49 44.55-25.49Q46.07-25.49 47.41-24.91 48.75-24.34 49.75-23.34 50.75-22.34 51.33-21 51.9-19.65 51.9-18.14L51.9-18.14 51.9 0ZM48.9-6.69L48.9-12.11 42.55-12.11Q41.65-12.11 40.85-11.77 40.06-11.43 39.48-10.83 38.89-10.23 38.55-9.44 38.21-8.64 38.21-7.74L38.21-7.74 38.21-6.69Q38.21-5.79 38.55-4.99 38.89-4.2 39.48-3.61 40.06-3.03 40.85-2.69 41.65-2.34 42.55-2.34L42.55-2.34 44.55-2.34Q45.46-2.34 46.25-2.69 47.04-3.03 47.63-3.61 48.22-4.2 48.56-4.99 48.9-5.79 48.9-6.69L48.9-6.69ZM68.26-22.14L65.25-22.14Q64.35-22.14 63.56-21.8 62.76-21.46 62.18-20.87 61.59-20.29 61.25-19.49 60.91-18.7 60.91-17.8L60.91-17.8 60.91 0 57.91 0 57.91-25 58.91-25 60.54-22.46Q61.57-23.85 63.12-24.67 64.67-25.49 66.5-25.49L66.5-25.49 68.26-25.49 68.26-22.14ZM90.96 0L87.05 0 76.85-12.5 87.05-25 90.96-25 80.51-12.5 90.96 0ZM76.26 0L73.26 0 73.26-35.01 76.26-35.01 76.26 0ZM111.66-6.86L111.66-6.86Q111.66-5.35 111.09-4 110.51-2.66 109.51-1.66 108.51-0.66 107.17-0.09 105.82 0.49 104.31 0.49L104.31 0.49 102.31 0.49Q100.8 0.49 99.45-0.09 98.11-0.66 97.11-1.66 96.11-2.66 95.53-4 94.96-5.35 94.96-6.86L94.96-6.86 94.96-18.14Q94.96-19.65 95.53-21 96.11-22.34 97.11-23.34 98.11-24.34 99.45-24.91 100.8-25.49 102.31-25.49L102.31-25.49 104.31-25.49Q105.82-25.49 107.17-24.91 108.51-24.34 109.51-23.34 110.51-22.34 111.09-21 111.66-19.65 111.66-18.14L111.66-18.14 111.66-12.26 97.96-12.26 97.96-6.69Q97.96-5.79 98.31-4.99 98.65-4.2 99.23-3.61 99.82-3.03 100.61-2.69 101.41-2.34 102.31-2.34L102.31-2.34 104.31-2.34Q105.21-2.34 106.01-2.69 106.8-3.03 107.39-3.61 107.97-4.2 108.32-4.99 108.66-5.79 108.66-6.69L108.66-6.69 108.66-8.35 111.66-7.86 111.66-6.86ZM108.66-14.6L108.66-18.31Q108.66-19.21 108.32-20.01 107.97-20.8 107.39-21.39 106.8-21.97 106.01-22.31 105.21-22.66 104.31-22.66L104.31-22.66 102.31-22.66Q101.41-22.66 100.61-22.31 99.82-21.97 99.23-21.39 98.65-20.8 98.31-20.01 97.96-19.21 97.96-18.31L97.96-18.31 97.96-14.6 108.66-14.6ZM129.5 0L126.77 0Q125.4 0 124.19-0.51 122.99-1.03 122.09-1.93 121.2-2.83 120.68-4.03 120.15-5.22 120.15-6.59L120.15-6.59 120.15-22.14 115.66-22.14 115.66-25 120.15-25 120.15-31.01 123.16-31.49 123.16-25 129.5-25 129.5-22.14 123.16-22.14 123.16-6.45Q123.16-5.69 123.44-5.04 123.72-4.39 124.21-3.91 124.69-3.42 125.35-3.14 126.01-2.86 126.77-2.86L126.77-2.86 129.5-2.86 129.5 0ZM180.16-35.01L170.91 0 169.27 0 162.46-26.34 162.36-27.71 162.21-26.34 155.45 0 153.82 0 144.51-35.01 147.66-35.01 154.52-8.4 154.62-7.1 154.72-8.4 161.46-35.01 163.21-35.01 169.95-8.4 170.05-7.1 170.17-8.4 177.01-35.01 180.16-35.01ZM199.96 0L198.95 0 197.29-2.49Q196.27-1.15 194.73-0.33 193.19 0.49 191.36 0.49L191.36 0.49 190.61 0.49Q189.09 0.49 187.75-0.09 186.41-0.66 185.4-1.66 184.4-2.66 183.83-4 183.26-5.35 183.26-6.86L183.26-6.86 183.26-7.1Q183.26-8.62 183.83-9.96 184.4-11.3 185.4-12.3 186.41-13.31 187.75-13.88 189.09-14.45 190.61-14.45L190.61-14.45 196.95-14.45 196.95-18.31Q196.95-19.21 196.61-20.01 196.27-20.8 195.68-21.39 195.1-21.97 194.3-22.31 193.51-22.66 192.61-22.66L192.61-22.66 190.85-22.66Q189.95-22.66 189.15-22.31 188.36-21.97 187.77-21.39 187.19-20.8 186.85-20.01 186.5-19.21 186.5-18.31L186.5-18.31 186.5-17.41 183.5-17.9 183.5-18.14Q183.5-19.65 184.07-21 184.65-22.34 185.65-23.34 186.65-24.34 187.99-24.91 189.34-25.49 190.85-25.49L190.85-25.49 192.61-25.49Q194.12-25.49 195.46-24.91 196.81-24.34 197.81-23.34 198.81-22.34 199.38-21 199.96-19.65 199.96-18.14L199.96-18.14 199.96 0ZM196.95-6.69L196.95-12.11 190.61-12.11Q189.7-12.11 188.91-11.77 188.11-11.43 187.53-10.83 186.94-10.23 186.6-9.44 186.26-8.64 186.26-7.74L186.26-7.74 186.26-6.69Q186.26-5.79 186.6-4.99 186.94-4.2 187.53-3.61 188.11-3.03 188.91-2.69 189.7-2.34 190.61-2.34L190.61-2.34 192.61-2.34Q193.51-2.34 194.3-2.69 195.1-3.03 195.68-3.61 196.27-4.2 196.61-4.99 196.95-5.79 196.95-6.69L196.95-6.69ZM222.66-25L213.8 0 212.31 0 203.44-25 206.45-25 212.97-6.05 213.06-4.76 213.16-6.05 219.66-25 222.66-25ZM242.85-6.86L242.85-6.86Q242.85-5.35 242.27-4 241.7-2.66 240.7-1.66 239.7-0.66 238.35-0.09 237.01 0.49 235.5 0.49L235.5 0.49 233.5 0.49Q231.98 0.49 230.64-0.09 229.3-0.66 228.3-1.66 227.29-2.66 226.72-4 226.15-5.35 226.15-6.86L226.15-6.86 226.15-18.14Q226.15-19.65 226.72-21 227.29-22.34 228.3-23.34 229.3-24.34 230.64-24.91 231.98-25.49 233.5-25.49L233.5-25.49 235.5-25.49Q237.01-25.49 238.35-24.91 239.7-24.34 240.7-23.34 241.7-22.34 242.27-21 242.85-19.65 242.85-18.14L242.85-18.14 242.85-12.26 229.15-12.26 229.15-6.69Q229.15-5.79 229.49-4.99 229.83-4.2 230.42-3.61 231.01-3.03 231.8-2.69 232.59-2.34 233.5-2.34L233.5-2.34 235.5-2.34Q236.4-2.34 237.19-2.69 237.99-3.03 238.57-3.61 239.16-4.2 239.5-4.99 239.84-5.79 239.84-6.69L239.84-6.69 239.84-8.35 242.85-7.86 242.85-6.86ZM239.84-14.6L239.84-18.31Q239.84-19.21 239.5-20.01 239.16-20.8 238.57-21.39 237.99-21.97 237.19-22.31 236.4-22.66 235.5-22.66L235.5-22.66 233.5-22.66Q232.59-22.66 231.8-22.31 231.01-21.97 230.42-21.39 229.83-20.8 229.49-20.01 229.15-19.21 229.15-18.31L229.15-18.31 229.15-14.6 239.84-14.6Z" opacity="1" transform="matrix(1,0,0,1,0,0)" fill="#ffffff" class="wordmark-text-0" data-fill-palette-color="quaternary" id="text-0"></path></svg></g></svg></g><g transform="matrix(1,0,0,1,0,39.155761300197)"><svg viewBox="0 0 213.1584412271571 19.57667690621106" height="19.57667690621106" width="213.1584412271571"><g transform="matrix(1,0,0,1,0,0)"><svg width="213.1584412271571" viewBox="3 -35.5 391.84 35.99" height="19.57667690621106" data-palette-color="#ffffff"><path d="M19.7-6.86L19.7-6.86Q19.7-5.35 19.13-4 18.55-2.66 17.55-1.66 16.55-0.66 15.21-0.09 13.87 0.49 12.35 0.49L12.35 0.49 10.35 0.49Q8.84 0.49 7.5-0.09 6.15-0.66 5.15-1.66 4.15-2.66 3.58-4 3-5.35 3-6.86L3-6.86 3-18.14Q3-19.65 3.58-21 4.15-22.34 5.15-23.34 6.15-24.34 7.5-24.91 8.84-25.49 10.35-25.49L10.35-25.49 12.35-25.49Q13.87-25.49 15.21-24.91 16.55-24.34 17.55-23.34 18.55-22.34 19.13-21 19.7-19.65 19.7-18.14L19.7-18.14 19.7-12.26 6.01-12.26 6.01-6.69Q6.01-5.79 6.35-4.99 6.69-4.2 7.28-3.61 7.86-3.03 8.65-2.69 9.45-2.34 10.35-2.34L10.35-2.34 12.35-2.34Q13.26-2.34 14.05-2.69 14.84-3.03 15.43-3.61 16.02-4.2 16.36-4.99 16.7-5.79 16.7-6.69L16.7-6.69 16.7-8.35 19.7-7.86 19.7-6.86ZM16.7-14.6L16.7-18.31Q16.7-19.21 16.36-20.01 16.02-20.8 15.43-21.39 14.84-21.97 14.05-22.31 13.26-22.66 12.35-22.66L12.35-22.66 10.35-22.66Q9.45-22.66 8.65-22.31 7.86-21.97 7.28-21.39 6.69-20.8 6.35-20.01 6.01-19.21 6.01-18.31L6.01-18.31 6.01-14.6 16.7-14.6ZM67.52-8.11L67.52-8.11Q67.52-6.32 66.85-4.76 66.18-3.2 65-2.03 63.83-0.85 62.27-0.18 60.71 0.49 58.92 0.49L58.92 0.49 56.43 0.49Q54.65 0.49 53.08-0.18 51.5-0.85 50.33-2.03 49.16-3.2 48.49-4.76 47.82-6.32 47.82-8.11L47.82-8.11 47.82-26.9Q47.82-28.69 48.49-30.25 49.16-31.81 50.33-32.98 51.5-34.16 53.08-34.83 54.65-35.5 56.43-35.5L56.43-35.5 58.92-35.5Q60.71-35.5 62.27-34.83 63.83-34.16 65-32.98 66.18-31.81 66.85-30.25 67.52-28.69 67.52-26.9L67.52-26.9 67.52-25.49 64.37-25 64.37-26.9Q64.37-28.08 63.93-29.09 63.49-30.1 62.73-30.86 61.98-31.62 60.96-32.06 59.95-32.5 58.78-32.5L58.78-32.5 56.58-32.5Q55.41-32.5 54.4-32.06 53.38-31.62 52.61-30.86 51.84-30.1 51.41-29.09 50.97-28.08 50.97-26.9L50.97-26.9 50.97-8.11Q50.97-6.93 51.41-5.92 51.84-4.91 52.61-4.14 53.38-3.37 54.4-2.93 55.41-2.49 56.58-2.49L56.58-2.49 58.78-2.49Q59.95-2.49 60.96-2.93 61.98-3.37 62.73-4.14 63.49-4.91 63.93-5.92 64.37-6.93 64.37-8.11L64.37-8.11 64.37-10.01 67.52-9.5 67.52-8.11ZM111.84-6.86L111.84-6.86Q111.84-5.35 111.27-4 110.7-2.66 109.7-1.66 108.69-0.66 107.35-0.09 106.01 0.49 104.5 0.49L104.5 0.49 102.49 0.49Q100.98 0.49 99.64-0.09 98.29-0.66 97.29-1.66 96.29-2.66 95.72-4 95.14-5.35 95.14-6.86L95.14-6.86 95.14-18.14Q95.14-19.65 95.72-21 96.29-22.34 97.29-23.34 98.29-24.34 99.64-24.91 100.98-25.49 102.49-25.49L102.49-25.49 104.5-25.49Q106.01-25.49 107.35-24.91 108.69-24.34 109.7-23.34 110.7-22.34 111.27-21 111.84-19.65 111.84-18.14L111.84-18.14 111.84-6.86ZM108.84-6.69L108.84-18.31Q108.84-19.21 108.5-20.01 108.16-20.8 107.57-21.39 106.99-21.97 106.19-22.31 105.4-22.66 104.5-22.66L104.5-22.66 102.49-22.66Q101.59-22.66 100.8-22.31 100-21.97 99.42-21.39 98.83-20.8 98.49-20.01 98.15-19.21 98.15-18.31L98.15-18.31 98.15-6.69Q98.15-5.79 98.49-4.99 98.83-4.2 99.42-3.61 100-3.03 100.8-2.69 101.59-2.34 102.49-2.34L102.49-2.34 104.5-2.34Q105.4-2.34 106.19-2.69 106.99-3.03 107.57-3.61 108.16-4.2 108.5-4.99 108.84-5.79 108.84-6.69L108.84-6.69ZM168.86 0L165.86 0 165.86-18.31Q165.86-19.21 165.52-20.01 165.18-20.8 164.59-21.39 164.01-21.97 163.21-22.31 162.42-22.66 161.52-22.66L161.52-22.66 160.03-22.66Q159.12-22.66 158.33-22.31 157.54-21.97 156.94-21.39 156.34-20.8 156-20.01 155.66-19.21 155.66-18.31L155.66-18.31 155.66 0 152.68 0 152.68-18.31Q152.68-19.21 152.34-20.01 151.99-20.8 151.4-21.39 150.8-21.97 150-22.31 149.21-22.66 148.31-22.66L148.31-22.66 146.82-22.66Q145.92-22.66 145.12-22.31 144.33-21.97 143.74-21.39 143.16-20.8 142.81-20.01 142.47-19.21 142.47-18.31L142.47-18.31 142.47 0 139.47 0 139.47-25 140.47-25 142.11-22.46Q143.13-23.85 144.68-24.67 146.23-25.49 148.06-25.49L148.06-25.49 148.31-25.49Q150.43-25.49 152.14-24.44 153.85-23.39 154.78-21.66L154.78-21.66Q155.24-22.51 155.92-23.22 156.61-23.93 157.44-24.43 158.27-24.93 159.25-25.21 160.22-25.49 161.27-25.49L161.27-25.49 161.52-25.49Q163.03-25.49 164.37-24.91 165.71-24.34 166.72-23.34 167.72-22.34 168.29-21 168.86-19.65 168.86-18.14L168.86-18.14 168.86 0ZM225.88 0L222.88 0 222.88-18.31Q222.88-19.21 222.54-20.01 222.2-20.8 221.61-21.39 221.03-21.97 220.23-22.31 219.44-22.66 218.54-22.66L218.54-22.66 217.05-22.66Q216.14-22.66 215.35-22.31 214.56-21.97 213.96-21.39 213.36-20.8 213.02-20.01 212.68-19.21 212.68-18.31L212.68-18.31 212.68 0 209.7 0 209.7-18.31Q209.7-19.21 209.36-20.01 209.01-20.8 208.42-21.39 207.82-21.97 207.02-22.31 206.23-22.66 205.33-22.66L205.33-22.66 203.84-22.66Q202.94-22.66 202.14-22.31 201.35-21.97 200.76-21.39 200.18-20.8 199.83-20.01 199.49-19.21 199.49-18.31L199.49-18.31 199.49 0 196.49 0 196.49-25 197.49-25 199.13-22.46Q200.15-23.85 201.7-24.67 203.25-25.49 205.08-25.49L205.08-25.49 205.33-25.49Q207.45-25.49 209.16-24.44 210.87-23.39 211.8-21.66L211.8-21.66Q212.26-22.51 212.95-23.22 213.63-23.93 214.46-24.43 215.29-24.93 216.27-25.21 217.24-25.49 218.29-25.49L218.29-25.49 218.54-25.49Q220.05-25.49 221.39-24.91 222.74-24.34 223.74-23.34 224.74-22.34 225.31-21 225.88-19.65 225.88-18.14L225.88-18.14 225.88 0ZM270.21-6.86L270.21-6.86Q270.21-5.35 269.64-4 269.06-2.66 268.06-1.66 267.06-0.66 265.72-0.09 264.38 0.49 262.86 0.49L262.86 0.49 260.86 0.49Q259.35 0.49 258-0.09 256.66-0.66 255.66-1.66 254.66-2.66 254.08-4 253.51-5.35 253.51-6.86L253.51-6.86 253.51-18.14Q253.51-19.65 254.08-21 254.66-22.34 255.66-23.34 256.66-24.34 258-24.91 259.35-25.49 260.86-25.49L260.86-25.49 262.86-25.49Q264.38-25.49 265.72-24.91 267.06-24.34 268.06-23.34 269.06-22.34 269.64-21 270.21-19.65 270.21-18.14L270.21-18.14 270.21-12.26 256.51-12.26 256.51-6.69Q256.51-5.79 256.86-4.99 257.2-4.2 257.78-3.61 258.37-3.03 259.16-2.69 259.96-2.34 260.86-2.34L260.86-2.34 262.86-2.34Q263.76-2.34 264.56-2.69 265.35-3.03 265.94-3.61 266.52-4.2 266.87-4.99 267.21-5.79 267.21-6.69L267.21-6.69 267.21-8.35 270.21-7.86 270.21-6.86ZM267.21-14.6L267.21-18.31Q267.21-19.21 266.87-20.01 266.52-20.8 265.94-21.39 265.35-21.97 264.56-22.31 263.76-22.66 262.86-22.66L262.86-22.66 260.86-22.66Q259.96-22.66 259.16-22.31 258.37-21.97 257.78-21.39 257.2-20.8 256.86-20.01 256.51-19.21 256.51-18.31L256.51-18.31 256.51-14.6 267.21-14.6ZM308.19-22.14L305.18-22.14Q304.28-22.14 303.49-21.8 302.69-21.46 302.11-20.87 301.52-20.29 301.18-19.49 300.84-18.7 300.84-17.8L300.84-17.8 300.84 0 297.84 0 297.84-25 298.84-25 300.47-22.46Q301.5-23.85 303.05-24.67 304.6-25.49 306.43-25.49L306.43-25.49 308.19-25.49 308.19-22.14ZM350.51-6.86L350.51-6.86Q350.51-5.35 349.94-4 349.36-2.66 348.36-1.66 347.36-0.66 346.02-0.09 344.68 0.49 343.16 0.49L343.16 0.49 341.16 0.49Q339.65 0.49 338.3-0.09 336.96-0.66 335.96-1.66 334.96-2.66 334.39-4 333.81-5.35 333.81-6.86L333.81-6.86 333.81-18.14Q333.81-19.65 334.39-21 334.96-22.34 335.96-23.34 336.96-24.34 338.3-24.91 339.65-25.49 341.16-25.49L341.16-25.49 343.16-25.49Q344.68-25.49 346.02-24.91 347.36-24.34 348.36-23.34 349.36-22.34 349.94-21 350.51-19.65 350.51-18.14L350.51-18.14 350.51-17.14 347.51-16.65 347.51-18.31Q347.51-19.21 347.17-20.01 346.82-20.8 346.24-21.39 345.65-21.97 344.86-22.31 344.07-22.66 343.16-22.66L343.16-22.66 341.16-22.66Q340.26-22.66 339.46-22.31 338.67-21.97 338.08-21.39 337.5-20.8 337.16-20.01 336.81-19.21 336.81-18.31L336.81-18.31 336.81-6.69Q336.81-5.79 337.16-4.99 337.5-4.2 338.08-3.61 338.67-3.03 339.46-2.69 340.26-2.34 341.16-2.34L341.16-2.34 343.16-2.34Q344.07-2.34 344.86-2.69 345.65-3.03 346.24-3.61 346.82-4.2 347.17-4.99 347.51-5.79 347.51-6.69L347.51-6.69 347.51-8.35 350.51-7.86 350.51-6.86ZM394.84-6.86L394.84-6.86Q394.84-5.35 394.26-4 393.69-2.66 392.69-1.66 391.69-0.66 390.34-0.09 389 0.49 387.49 0.49L387.49 0.49 385.49 0.49Q383.97 0.49 382.63-0.09 381.29-0.66 380.29-1.66 379.28-2.66 378.71-4 378.14-5.35 378.14-6.86L378.14-6.86 378.14-18.14Q378.14-19.65 378.71-21 379.28-22.34 380.29-23.34 381.29-24.34 382.63-24.91 383.97-25.49 385.49-25.49L385.49-25.49 387.49-25.49Q389-25.49 390.34-24.91 391.69-24.34 392.69-23.34 393.69-22.34 394.26-21 394.84-19.65 394.84-18.14L394.84-18.14 394.84-12.26 381.14-12.26 381.14-6.69Q381.14-5.79 381.48-4.99 381.82-4.2 382.41-3.61 383-3.03 383.79-2.69 384.58-2.34 385.49-2.34L385.49-2.34 387.49-2.34Q388.39-2.34 389.18-2.69 389.98-3.03 390.56-3.61 391.15-4.2 391.49-4.99 391.83-5.79 391.83-6.69L391.83-6.69 391.83-8.35 394.84-7.86 394.84-6.86ZM391.83-14.6L391.83-18.31Q391.83-19.21 391.49-20.01 391.15-20.8 390.56-21.39 389.98-21.97 389.18-22.31 388.39-22.66 387.49-22.66L387.49-22.66 385.49-22.66Q384.58-22.66 383.79-22.31 383-21.97 382.41-21.39 381.82-20.8 381.48-20.01 381.14-19.21 381.14-18.31L381.14-18.31 381.14-14.6 391.83-14.6Z" opacity="1" transform="matrix(1,0,0,1,0,0)" fill="#ffffff" class="slogan-text-1" data-fill-palette-color="quaternary" id="text-1"></path></svg></g></svg></g></svg></g></svg></g><g transform="matrix(1,0,0,1,40.713262274387006,0)"><svg viewBox="0 0 131.7319166783831 49.41488615905024" height="49.41488615905024" width="131.7319166783831"><g><svg xmlns="http://www.w3.org/2000/svg" xmlns:xlink="http://www.w3.org/1999/xlink" version="1.1" x="0" y="0" viewBox="1 33.238530451128 98 36.761469548872" enable-background="new 0 0 100 100" xml:space="preserve" height="49.41488615905024" width="131.7319166783831" class="icon-icon-0" data-fill-palette-color="quaternary" id="icon-0"><path d="M99 34H84.623c-1.938 0-3.097 1.352-4.258 3.542-0.938-1.122-1.697-1.923-2.446-1.927-1.883-0.01-3.514-0.104-4.935-0.104-1.02-1.33-2.006-2.207-3.229-2.231-4.876-0.101-10.978 0.014-11.037 0.016-5.808 0.126-9.29 5.956-12.659 11.697C43.147 49.957 40.136 55 36.262 55c-0.008 0-0.018 0-0.026 0-4.054 0-6.771-4.372-9.648-9.487C23.277 39.627 19.854 34 13.479 34H1v4h4.699c3.426 1.813 7.693 9 10.832 15.277C20.677 61.57 24.962 70 32.141 70c0.015 0 0.03 0 0.044 0 1.537 0 2.955-0.46 4.28-1.229 0.114-0.065 0.225-0.148 0.337-0.22 0.746-0.096 1.464-0.259 2.154-0.55 0.052-0.021-0.04 0.02 0.013-0.002 0.063 0.026 0.267 0.164 0.331 0.189C40.333 68.604 41.431 69 42.608 69c0.015 0 0.03 0 0.046 0 1.964 0 3.736-0.881 5.365-2.07 1.447-1.055 2.781-2.582 4.039-4.268 2.347-3.143 4.427-7.179 6.477-11.11 2.863-5.495 5.803-11.154 9.37-14.196 0.074-0.063 0.149-0.134 0.225-0.195 0.397 0.004 0.793 0.004 1.181 0.011 0.567 0.538 1.617 2.194 2.333 3.324 2.023 3.194 3.612 5.731 5.906 5.612 1.764-0.082 3.022-1.356 4.091-3.022 0.019 0.026 0.037 0.052 0.057 0.078 2.062 2.798 4.276 5.319 6.45 5.318 0.062 0 0.123-0.002 0.186-0.006 0.253-0.018 0.496-0.053 0.73-0.105 0.165-0.037 0.325-0.083 0.481-0.137 0.175 0.018 0.351 0.025 0.526 0.015 3.784-0.253 5.491-4.006 6.863-7.338C97.451 39.649 97.981 38 98.534 38H99V34zM35.899 68.831c-1.162 0.598-2.423 1.06-3.743 1.06-7.019 0-11.285-8.377-15.395-16.6C13.686 47.139 10.529 41 6.175 38h2.671c0.219 0 0.627-0.053 0.841 0.063 4.426 2.394 7.419 7.987 10.517 14.121 4.066 8.05 8.313 16.332 15.499 16.332 0.015 0 0.25 0.016 0.266 0.016 0.142 0 0.142 0.01 0.281 0C36.312 68.529 36.039 68.759 35.899 68.831zM37.766 67.531C37.084 67.74 36.436 68 35.702 68c-0.014 0-0.027 0-0.041 0-6.553 0-10.613-8.033-14.539-15.805C18.266 46.542 15.339 41 11.36 38h2.119c4.069 0 6.792 4.446 9.673 9.571 1.706 3.032 3.441 5.919 5.592 8.196 0.105 0.111 0.216 0.173 0.324 0.279 0.088 0.169 0.175 0.321 0.264 0.488 2.429 4.555 5.244 8.756 8.605 10.825C37.956 67.37 37.748 67.521 37.766 67.531zM38.403 67.002c-0.055-0.031-0.113-0.055-0.168-0.087-3.127-1.832-5.646-5.521-7.951-9.723-0.032-0.058-0.063-0.117-0.094-0.175 0.02 0.016 0.039-0.08 0.059-0.063C31.937 58.296 33.883 59 36.23 59c0.017 0 0.034 0 0.051 0 6.118 0 9.707-6.08 13.178-11.996 2.821-4.808 5.738-9.747 9.347-9.825 0.006-0.001 0.063 0.026 0.157 0.022-0.011 0.006-0.022 0.026-0.034 0.033-4.459 2.588-7.875 9.148-11.203 15.533-2.793 5.358-5.648 10.838-9.127 14.062C38.534 66.889 38.468 66.944 38.403 67.002zM38.804 66.984c0.08-0.074 0.161-0.145 0.241-0.222 3.39-3.28 6.178-8.631 8.909-13.87 3.354-6.436 6.801-13.047 11.28-15.521 0.101-0.056 0.203-0.106 0.305-0.158 0.275-0.007 0.618-0.015 1.017-0.021-0.072 0.05-0.144 0.084-0.215 0.137-3.903 2.874-6.962 8.68-9.946 14.348C46.976 58.169 43.461 64.843 38.804 66.984zM67.166 37.303c-3.463 3.178-6.311 8.64-9.088 13.969-2.035 3.904-4.103 7.873-6.418 10.979-1.261 1.69-2.594 3.055-4.036 4.086C46.101 67.424 44.456 68 42.651 68c-0.014 0-0.028 0-0.043 0-0.945 0-1.84-0.086-2.692-0.379-0.052-0.018-0.102-0.007-0.154-0.026 0.042-0.021 0.084-0.021 0.126-0.044 4.634-2.559 8.07-9.06 11.417-15.415 3.235-6.145 6.561-12.447 10.826-14.735 0.179-0.096 0.36-0.17 0.542-0.251 1.403-0.014 3.043-0.019 4.675-0.007C67.287 37.196 67.227 37.248 67.166 37.303zM77.551 42.036c-0.693-0.674-1.852-2.501-2.579-3.651-0.441-0.698-0.854-1.345-1.253-1.936 0.799 0 1.667 0.002 2.595 0.006 0.746 0.402 1.683 1.555 2.699 2.949 0.037 0.051 0.075 0.106 0.113 0.158C78.592 40.563 77.973 41.641 77.551 42.036zM79.769 38.326c-0.146 0.284-0.32 0.624-0.509 0.983-0.031-0.042-0.063-0.088-0.094-0.13-0.879-1.202-1.681-2.194-2.387-2.722 0.367 0.001 0.745 0.003 1.134 0.005 0.445 0.002 1.15 0.725 1.935 1.709C79.821 38.224 79.795 38.273 79.769 38.326zM88.811 48.157c-0.161 0.029-0.327 0.05-0.496 0.062-0.055 0.003-0.108 0.005-0.163 0.005-2.07 0-4.313-2.587-6.31-5.3-0.019-0.025-0.035-0.05-0.054-0.074 0.223-0.36 0.438-0.735 0.647-1.12 0.038 0.054 0.075 0.106 0.113 0.16 1.939 2.728 4.039 5.471 6.242 6.185 0.057 0.019 0.114 0.032 0.172 0.048C88.912 48.133 88.862 48.147 88.811 48.157zM91.042 47.109c-0.07 0.022-0.14 0.025-0.211 0.046-0.263 0.075-0.539 0.084-0.829 0.104-2.16 0.148-4.767-3.34-6.924-6.382-0.035-0.049-0.07-0.028-0.104-0.078 0.1-0.196 0.201-0.085 0.302-0.281C83.777 39.539 84.512 38 84.967 38h11.219c-0.463 0-0.892 1.688-1.35 2.8-0.823 1.998-1.769 4.214-3.178 5.752C91.462 46.768 91.257 46.927 91.042 47.109zM95.982 40.517c-0.986 2.394-2.068 4.828-3.845 6.113-0.145 0.104-0.295 0.148-0.448 0.224 0.156-0.161 0.309-0.346 0.453-0.523 1.275-1.553 2.157-3.543 2.931-5.423C95.555 39.739 96.004 38 96.481 38h0.826C96.855 38 96.439 39.407 95.982 40.517z" fill="#ffffff" data-fill-palette-color="quaternary"></path></svg></g></svg></g><g></g></svg></g></svg></g></svg></g><defs></defs></svg><rect width="342.85155851775386" height="342.85155851775386" fill="none" stroke="none" visibility="hidden"></rect></g></svg></g></svg>